# xmcd
#
# Track frame offsets:
#	150
#	40429
#	67340
#	97948
#	136434
#	177284
#
# Disc length: 3071 seconds
#
# Revision: 1
# Processed by: cddbd v1.5.2PL0 Copyright (c) Steve Scherf et al.
# Submitted via: audiograbber 1.83.01
#
DISCID=550bfd06
DTITLE=Grateful Dead - 95-05-20A Sam Boyd Silver Bowl, Las Vegas NV
DYEAR=1900
DGENRE=
TTITLE0=China Cat Sunflower
TTITLE1=I Know You Rider
TTITLE2=Samba In The Rain
TTITLE3=Women Are Smarter
TTITLE4=Truckin'
TTITLE5=Drums
EXTD=
EXTT0=
EXTT1=
EXTT2=
EXTT3=
EXTT4=
EXTT5=
PLAYORDER=
